<mxfile host="app.diagrams.net" modified="2024-06-25T08:20:04.975Z" agent="Mozilla/5.0 (Macintosh; Intel Mac OS X 10_15_7) AppleWebKit/537.36 (KHTML, like Gecko) Chrome/126.0.0.0 Safari/537.36 Edg/126.0.0.0" version="24.6.2" etag="U5CGFP7WDnbUZ2HKXb25" type="github">
  <diagram name="第 1 页" id="yAqpHjZ1E4T-eeqHKN21">
    <mxGraphModel>
      <root>
        <mxCell id="0" />
        <mxCell id="1" parent="0" />
      </root>
    </mxGraphModel>
  </diagram>
</mxfile>
